<svg width="30" height="27" viewBox="0 0 30 27" fill="none" xmlns="http://www.w3.org/2000/svg">
<path d="M22 26H29V22.875C29 20.2862 27.1196 18.1875 24.8 18.1875C23.4621 18.1875 22.2704 18.8856 21.5013 19.9733M22 26H8M22 26V22.875C22 21.8496 21.823 20.8704 21.5013 19.9733M8 26H1V22.875C1 20.2862 2.8804 18.1875 5.2 18.1875C6.53785 18.1875 7.7296 18.8856 8.49874 19.9733M8 26V22.875C8 21.8496 8.17699 20.8704 8.49874 19.9733M8.49874 19.9733C9.5309 17.0954 12.0527 15.0625 15 15.0625C17.9473 15.0625 20.4691 17.0954 21.5013 19.9733M19.2 5.6875C19.2 8.27633 17.3196 10.375 15 10.375C12.6804 10.375 10.8 8.27633 10.8 5.6875C10.8 3.09867 12.6804 1 15 1C17.3196 1 19.2 3.09867 19.2 5.6875ZM27.6 10.375C27.6 12.1009 26.3464 13.5 24.8 13.5C23.2536 13.5 22 12.1009 22 10.375C22 8.64911 23.2536 7.25 24.8 7.25C26.3464 7.25 27.6 8.64911 27.6 10.375ZM8 10.375C8 12.1009 6.7464 13.5 5.2 13.5C3.6536 13.5 2.4 12.1009 2.4 10.375C2.4 8.64911 3.6536 7.25 5.2 7.25C6.7464 7.25 8 8.64911 8 10.375Z" stroke="#F4B354" stroke-width="2" stroke-linecap="round" stroke-linejoin="round"/>
</svg>
