<svg width="245" height="245" viewBox="0 0 245 245" fill="none" xmlns="http://www.w3.org/2000/svg">
<g clip-path="url(#clip0_1_16)">
<g clip-path="url(#clip1_1_16)">
<path d="M0 158.045C0 158.045 5.268 186.605 75.696 168.305C146.124 150.005 167.472 140.577 201.856 142.795C236.237 145.014 245.111 166.641 245.111 166.641C245.111 166.641 227.088 138.248 149.45 162.704C71.813 187.16 6.378 192.566 0 158.045Z" fill="white"/>
<path d="M237.625 172.741C237.625 172.741 220.71 150.005 171.077 164.699C121.446 179.395 106.751 199.914 70.429 199.914C70.429 199.914 94.828 211.837 137.528 188.545C180.228 165.254 214.61 164.146 237.625 172.741Z" fill="white"/>
<path d="M109.038 179.88C109.038 179.88 62.663 196.101 23.358 185.911C23.358 185.911 45.402 199.845 75.764 192.982C106.127 186.12 109.038 179.88 109.038 179.88Z" fill="white"/>
<path d="M234.154 83.799C229.441 83.786 224.841 83.856 220.196 84.025C215.563 84.171 210.934 84.388 206.311 84.681C201.686 84.953 197.065 85.295 192.45 85.711C189.774 85.942 187.1 86.198 184.428 86.471C184.487 86.123 184.546 85.775 184.605 85.427C184.933 83.18 185.203 80.921 185.399 78.657C185.601 76.393 185.728 74.125 185.831 71.853L185.922 68.442C185.942 67.298 185.964 66.176 185.939 64.997L185.888 62.557L183.019 62.226C179.159 61.781 175.477 61.554 171.706 61.431C167.956 61.291 164.208 61.328 160.459 61.404C156.713 61.532 152.965 61.711 149.228 62.036C145.492 62.367 141.753 62.735 138.037 63.272C134.319 63.795 130.602 64.369 126.913 65.103C124.061 65.662 121.212 66.248 118.381 66.919L118.766 64.749C119.049 62.87 119.319 60.992 119.529 59.114C119.76 57.234 119.932 55.356 120.119 53.475C120.271 51.594 120.44 49.718 120.559 47.825L120.683 45.85L118.337 44.981L117.489 44.667L116.756 44.419C116.277 44.269 115.798 44.125 115.325 44.003C114.371 43.757 113.425 43.587 112.471 43.425C110.568 43.109 108.664 43.029 106.764 43C104.865 43.015 102.979 43.136 101.109 43.376C99.253 43.651 97.39 43.942 95.587 44.42C93.775 44.872 91.979 45.375 90.241 46.015C88.492 46.634 86.777 47.313 85.096 48.069C83.431 48.844 81.782 49.655 80.195 50.555C79.389 50.989 78.599 51.443 77.831 51.929C77.063 52.415 76.266 52.861 75.523 53.381C74.035 54.415 72.524 55.414 71.108 56.527C69.675 57.624 68.289 58.764 66.938 59.943C66.256 60.526 65.605 61.14 64.955 61.753C64.3 62.359 63.654 62.976 63.022 63.607C61.778 64.885 60.548 66.17 59.374 67.505C58.212 68.848 57.082 70.221 55.99 71.613C54.942 73.051 53.867 74.451 52.897 75.939C51.927 77.426 50.981 78.924 50.103 80.469C49.246 82.033 48.433 83.625 47.692 85.262C49.275 84.382 50.787 83.455 52.254 82.502C53.731 81.559 55.208 80.634 56.624 79.662L60.9 76.822C62.295 75.857 63.739 74.967 65.103 73.995C66.518 73.086 67.899 72.152 69.278 71.227C70.704 70.369 72.027 69.38 73.443 68.538C74.837 67.666 76.191 66.746 77.602 65.932C78.975 65.053 80.373 64.239 81.767 63.421C83.173 62.636 84.555 61.802 85.969 61.061C86.678 60.695 87.37 60.286 88.08 59.928C88.791 59.574 89.5 59.213 90.204 58.841C91.636 58.166 93.044 57.435 94.492 56.816C95.939 56.197 97.376 55.554 98.841 55.005C100.307 54.456 101.769 53.907 103.257 53.437C104.744 52.998 106.235 52.505 107.746 52.185C109.251 51.793 110.776 51.518 112.299 51.279C113.057 51.172 113.823 51.08 114.572 51.027C114.659 51.018 114.742 51.016 114.828 51.008L116.009 59.167L116.849 64.734L117.228 67.204C116.782 67.314 116.334 67.419 115.889 67.534C112.241 68.466 108.597 69.434 105 70.563C101.404 71.697 97.826 72.897 94.291 74.218C87.226 76.876 80.305 79.941 73.619 83.464C70.283 85.235 66.987 87.087 63.783 89.085C60.565 91.059 57.433 93.174 54.375 95.378C51.311 97.577 48.364 99.932 45.475 102.34C42.634 104.811 39.824 107.303 37.197 109.986C34.54 112.631 32.01 115.396 29.621 118.267C27.209 121.115 25 124.132 22.903 127.197C25.834 124.898 28.702 122.589 31.66 120.412C33.103 119.285 34.625 118.254 36.079 117.158C37.583 116.119 39.052 115.048 40.564 114.036C43.557 111.975 46.616 110.028 49.686 108.128C52.758 106.228 55.885 104.437 59.021 102.681C62.188 100.974 65.345 99.27 68.571 97.702C71.804 96.149 75.016 94.569 78.313 93.166C81.595 91.735 84.881 90.321 88.229 89.051C91.563 87.753 94.907 86.478 98.302 85.339C101.687 84.175 105.083 83.037 108.515 82.009C111.95 80.991 115.386 79.964 118.858 79.058C122.33 78.157 125.806 77.249 129.312 76.457C132.818 75.673 136.329 74.881 139.863 74.191C143.399 73.515 146.938 72.821 150.499 72.243C154.059 71.662 157.625 71.07 161.21 70.608C164.79 70.086 168.384 69.682 171.982 69.28C173.781 69.084 175.583 68.919 177.383 68.766C178.356 68.678 179.343 68.599 180.321 68.529L180.378 68.849L180.905 72.133C181.262 74.326 181.569 76.528 181.878 78.735C182.175 80.943 182.445 83.156 182.687 85.381C182.729 85.801 182.775 86.222 182.82 86.643C181.418 86.791 180.015 86.933 178.615 87.097C174.011 87.633 169.405 88.177 164.815 88.848C160.224 89.509 155.633 90.188 151.056 90.965C146.482 91.757 141.913 92.59 137.353 93.484C132.797 94.397 128.257 95.4 123.724 96.437C119.19 97.479 114.687 98.662 110.189 99.861C105.69 101.064 101.231 102.425 96.78 103.811C92.328 105.197 87.929 106.764 83.543 108.357C79.161 109.966 74.836 111.748 70.543 113.589C66.266 115.473 62.026 117.457 57.885 119.637C53.734 121.794 49.661 124.106 45.713 126.616C41.769 129.133 37.943 131.833 34.313 134.764C30.666 137.667 27.223 140.823 24.099 144.238C27.903 141.6 31.827 139.22 35.816 137.001C39.824 134.811 43.909 132.8 48.047 130.93C52.174 129.037 56.392 127.351 60.625 125.731C64.874 124.145 69.131 122.596 73.457 121.229C77.762 119.811 82.103 118.502 86.465 117.26C90.823 116.003 95.216 114.87 99.61 113.736C104.009 112.616 108.436 111.606 112.86 110.579C117.289 109.568 121.743 108.662 126.193 107.729C130.647 106.815 135.118 105.975 139.592 105.147C144.065 104.308 148.551 103.527 153.045 102.787C157.536 102.03 162.034 101.296 166.542 100.62C171.052 99.957 175.559 99.255 180.078 98.632L193.647 96.808L207.243 95.127L220.861 93.593C223.389 93.333 225.928 93.07 228.461 92.818L228.233 93.58L226.183 100.553C224.838 105.208 223.507 109.874 222.216 114.543L220.298 121.548C219.653 123.882 219.067 126.239 218.447 128.587C217.848 130.941 217.2 133.28 216.616 135.647C216.028 138.011 215.415 140.366 214.865 142.744C215.958 140.571 216.988 138.374 218.043 136.186C219.111 134.004 220.084 131.784 221.099 129.576C222.098 127.363 223.129 125.159 224.103 122.933L227.04 116.257C228.98 111.803 230.87 107.343 232.751 102.874L235.538 96.159L238.291 89.431L240.59 83.813L234.154 83.799Z" fill="white"/>
</g>
</g>
<defs>
<clipPath id="clip0_1_16">
<rect width="245" height="245" fill="white"/>
</clipPath>
<clipPath id="clip1_1_16">
<rect width="245.111" height="159.965" fill="white" transform="translate(0 43)"/>
</clipPath>
</defs>
</svg>
