<svg width="495" height="93" viewBox="0 0 495 93" fill="none" xmlns="http://www.w3.org/2000/svg">
<g clip-path="url(#clip0_1_2)">
<path d="M207.736 25.4441C202.859 44.2726 193.384 58.3464 179.376 68.4774C167.821 65.685 157.19 62.641 146.369 60.611C129.314 57.4117 112.051 57.6697 94.8276 59.2441C72.9343 61.2443 51.5461 65.8926 30.442 71.9402C29.4805 72.2153 28.4704 72.3137 27.3907 72.0683C84.6499 46.7609 143.601 28.1183 207.736 25.4441" fill="#24606F"/>
<path d="M0.331915 84.2059C19.7259 88.0629 38.3496 83.4769 57.049 79.4602C73.0489 76.0236 88.9956 72.1458 105.151 69.6774C121.629 67.1593 138.271 67.2026 154.335 72.9804C160.314 75.1304 166.074 77.7595 171.912 82.6486C165.385 80.7594 160.036 78.834 154.526 77.6873C140.352 74.7379 126.092 75.6997 112.027 78.2846C93.2104 81.7419 74.5398 85.9913 55.7556 89.6336C41.676 92.3637 27.4566 93.4464 13.3066 90.2273C8.7445 89.1888 4.42863 87.0749 0 85.4518C0.110941 85.0368 0.220974 84.6209 0.331915 84.2059" fill="#3FA7BB"/>
<path d="M67.454 49.1455C90.4134 32.8035 115.303 20.5766 142.915 12.0308C146.65 16.3985 150.448 20.8392 155.096 26.2751C124.223 30.0797 95.7151 39.0262 67.454 49.1455" fill="#3FA7BB"/>
<path d="M127.537 10.0964L117.991 -0.999996C117.991 -0.999996 77.2692 22.7961 67.4161 43.789C67.4161 43.789 103.495 16.7323 127.537 10.0964" fill="#24606F"/>
<path d="M243.029 37.2558H236.403V42.7738H242.877C244.91 42.7738 246.306 42.5644 247.066 42.1503C247.824 41.7362 248.204 41.0262 248.204 40.0238C248.204 39.0557 247.796 38.3547 246.98 37.9126C246.165 37.4741 244.846 37.2558 243.029 37.2558ZM243.535 29.2341H236.403V33.6595H244.082C245.299 33.6595 246.199 33.4818 246.783 33.1245C247.366 32.7654 247.657 32.215 247.657 31.4761C247.657 30.6479 247.353 30.066 246.745 29.733C246.137 29.4001 245.067 29.2341 243.535 29.2341V29.2341ZM231 46.1995V45.6906C231.401 45.5914 231.661 45.4669 231.781 45.3234C231.899 45.1809 231.961 44.931 231.961 44.58V27.5776C231.961 27.2014 231.897 26.9398 231.772 26.7963C231.646 26.6537 231.39 26.5356 231 26.448V25.959H244.685C246.967 25.959 248.747 26.4138 250.02 27.3232C251.293 28.2354 251.931 29.4994 251.931 31.1188C251.931 32.0463 251.701 32.8592 251.244 33.5567C250.785 34.2514 250.092 34.8396 249.164 35.316C250.319 35.8952 251.171 36.5827 251.724 37.3866C252.275 38.1905 252.552 39.1522 252.552 40.2674C252.552 42.1386 251.827 43.5957 250.378 44.635C248.929 45.6789 246.879 46.1995 244.232 46.1995H231" fill="#24606F"/>
<path d="M261.379 35.9385C261.379 37.9974 262.05 39.6503 263.39 40.899C264.732 42.1476 266.523 42.7738 268.767 42.7738C270.997 42.7738 272.787 42.1449 274.134 40.8899C275.481 39.6349 276.155 37.9848 276.155 35.9385C276.155 33.8797 275.478 32.2214 274.125 30.9664C272.771 29.7105 270.973 29.0852 268.729 29.0852C266.523 29.0852 264.747 29.7141 263.399 30.9754C262.053 32.2367 261.379 33.8932 261.379 35.9385V35.9385ZM268.729 25.6009C272.151 25.6009 274.961 26.587 277.155 28.5656C279.349 30.5423 280.446 33.037 280.446 36.0513C280.446 39.062 279.342 41.5657 277.137 43.5515C274.93 45.5418 272.127 46.5387 268.729 46.5387C265.381 46.5387 262.604 45.5355 260.397 43.5334C258.19 41.5314 257.087 39.0368 257.087 36.0513C257.087 33.0496 258.181 30.5586 260.369 28.5746C262.558 26.5906 265.344 25.6009 268.729 25.6009" fill="#24606F"/>
<path d="M294.225 31.1188L290.781 38.2518H297.502L294.225 31.1188ZM282.538 46.1995V45.6906C283.239 45.5012 283.811 44.9256 284.25 43.9566C284.287 43.87 284.325 43.7888 284.364 43.7139L291.873 27.9917C291.96 27.8185 292.013 27.6931 292.033 27.6245C292.052 27.5569 292.062 27.4901 292.062 27.4288C292.062 27.2014 291.97 27.0083 291.788 26.8432C291.605 26.6808 291.339 26.5473 290.988 26.448V25.959H297.839V26.448C297.463 26.5725 297.209 26.6998 297.078 26.8243C296.946 26.9497 296.88 27.1085 296.88 27.2952C296.88 27.3818 296.896 27.4847 296.927 27.5966C296.958 27.7093 297.005 27.8429 297.069 27.9917L304.823 43.7328C305.162 44.4113 305.466 44.885 305.736 45.1529C306.006 45.4236 306.328 45.604 306.705 45.6906V46.1995H299.421V45.6906C299.772 45.5761 300.02 45.4552 300.164 45.3234C300.308 45.1926 300.381 45.0185 300.381 44.8074C300.381 44.7162 300.369 44.6233 300.344 44.5232C300.317 44.4239 300.267 44.2841 300.192 44.109L298.725 41.0018H289.445L288.052 44.109C287.975 44.2841 287.926 44.4239 287.901 44.5232C287.876 44.6233 287.863 44.7162 287.863 44.8074C287.863 45.0185 287.934 45.1926 288.081 45.3234C288.225 45.4552 288.472 45.5761 288.825 45.6906V46.1995H282.538" fill="#24606F"/>
<path d="M308.736 29.5363C308.347 29.5363 308.087 29.595 307.956 29.7141C307.824 29.8359 307.714 30.0813 307.627 30.4575H307.117V25H307.607C307.695 25.3735 307.815 25.6288 307.965 25.7596C308.115 25.8932 308.374 25.959 308.736 25.959H325.696C326.084 25.959 326.345 25.8968 326.477 25.7687C326.609 25.6442 326.718 25.3888 326.806 25H327.314V30.4954H326.806C326.731 30.1183 326.618 29.8666 326.467 29.733C326.317 29.6022 326.059 29.5363 325.696 29.5363H319.408V44.58C319.408 44.9689 319.468 45.2296 319.588 45.3613C319.708 45.4921 319.955 45.604 320.331 45.6906V46.1995H314.063V45.6906C314.44 45.5914 314.688 45.4669 314.807 45.3234C314.926 45.1809 314.998 44.9256 315.024 44.5611V29.5363H308.736" fill="#24606F"/>
<path d="M356.152 29.4218H350.054V34.9768H356.303C358.148 34.9768 359.461 34.7557 360.246 34.31C361.03 33.8652 361.423 33.1326 361.423 32.1149C361.423 31.1369 361.039 30.4431 360.274 30.0353C359.508 29.6275 358.136 29.4218 356.152 29.4218V29.4218ZM344.652 46.1995V45.6906C345.04 45.6167 345.297 45.5012 345.424 45.3514C345.547 45.2025 345.612 44.9436 345.612 44.58V27.5776C345.612 27.2258 345.551 26.974 345.434 26.8243C345.314 26.6754 345.054 26.5473 344.652 26.448V25.959H357.376C360.011 25.959 362.056 26.4724 363.511 27.5036C364.968 28.5313 365.694 29.9694 365.694 31.8127C365.694 33.3329 365.246 34.5843 364.35 35.5704C363.452 36.5547 362.068 37.2991 360.2 37.8007L364.471 43.7698C364.722 44.1343 365.009 44.4519 365.327 44.7198C365.648 44.9905 366.159 45.3144 366.862 45.6906V46.1995H359.427V45.6906C359.703 45.6536 359.913 45.5761 360.057 45.4633C360.202 45.3514 360.274 45.2152 360.274 45.0492C360.274 45.0122 360.224 44.8886 360.125 44.6729C360.023 44.4609 359.917 44.2714 359.804 44.109L355.569 37.9126H350.054V44.58C350.054 44.9562 350.113 45.2152 350.233 45.3514C350.352 45.4894 350.612 45.604 351.013 45.6906V46.1995H344.652Z" fill="#24606F"/>
<path d="M390.109 42.5644C390.51 42.5644 390.776 42.5058 390.908 42.3876C391.04 42.2658 391.149 42.0204 391.239 41.6433H391.727V47.1577H391.239C391.149 46.7814 391.032 46.5288 390.89 46.3944C390.744 46.2645 390.485 46.1995 390.109 46.1995H371.719V45.6906C372.12 45.5914 372.38 45.4669 372.5 45.3234C372.618 45.1809 372.679 44.931 372.679 44.58V27.5776C372.679 27.2014 372.615 26.9398 372.491 26.7963C372.364 26.6537 372.108 26.5356 371.719 26.448V25.959H389.883C390.271 25.959 390.532 25.8968 390.663 25.7687C390.795 25.6442 390.905 25.3888 390.993 25H391.501V30.4954H390.993C390.905 30.1183 390.785 29.8729 390.636 29.7511C390.485 29.6329 390.234 29.5742 389.883 29.5742H377.12V34.0177H385.252C385.653 34.0177 385.916 33.9608 386.043 33.8463C386.167 33.7335 386.281 33.4854 386.382 33.0956H386.871V38.2148H386.382C386.306 37.8503 386.197 37.6076 386.052 37.4804C385.907 37.355 385.641 37.2937 385.252 37.2937H377.12V42.5644H390.109Z" fill="#24606F"/>
<path d="M402.87 32.4731V44.58C402.87 44.9689 402.929 45.2296 403.048 45.3613C403.166 45.4921 403.416 45.604 403.793 45.6906V46.1995H398.013V45.6906C398.415 45.5914 398.675 45.4669 398.795 45.3234C398.913 45.1809 398.974 44.931 398.974 44.58V27.5776C398.974 27.2014 398.91 26.9398 398.785 26.7963C398.659 26.6537 398.402 26.5356 398.013 26.448V25.959H405.261V26.448C405.072 26.485 404.918 26.5536 404.8 26.6565C404.68 26.7557 404.615 26.8811 404.601 27.0336C404.601 27.1698 404.642 27.307 404.724 27.4477C404.806 27.5839 404.946 27.7518 405.147 27.9548L416.14 39.1396V27.5776C416.14 27.1888 416.08 26.9271 415.961 26.7963C415.841 26.6655 415.581 26.5473 415.179 26.448V25.959H420.959V26.448C420.57 26.5473 420.318 26.6754 420.205 26.8243C420.092 26.974 420.036 27.2258 420.036 27.5776V44.58C420.036 44.9562 420.095 45.2179 420.215 45.3613C420.333 45.5039 420.582 45.6167 420.959 45.6906V46.1995H414.296V45.6906C414.495 45.6536 414.652 45.5851 414.765 45.4831C414.878 45.383 414.935 45.2648 414.935 45.124C414.935 44.9878 414.894 44.848 414.811 44.7018C414.732 44.5575 414.596 44.3932 414.407 44.2029L402.87 32.4731" fill="#24606F"/>
<path d="M427.546 29.5363C427.157 29.5363 426.897 29.595 426.766 29.7141C426.633 29.8359 426.523 30.0813 426.436 30.4575H425.927V25H426.418C426.504 25.3735 426.624 25.6288 426.775 25.7596C426.925 25.8932 427.183 25.959 427.546 25.959H444.505C444.894 25.959 445.155 25.8968 445.287 25.7687C445.419 25.6442 445.528 25.3888 445.616 25H446.123V30.4954H445.616C445.542 30.1183 445.429 29.8666 445.277 29.733C445.127 29.6022 444.869 29.5363 444.505 29.5363H438.219V44.58C438.219 44.9689 438.278 45.2296 438.398 45.3613C438.518 45.4921 438.765 45.604 439.141 45.6906V46.1995H432.873V45.6906C433.25 45.5914 433.497 45.4669 433.617 45.3234C433.736 45.1809 433.808 44.9256 433.834 44.5611V29.5363H427.546" fill="#24606F"/>
<path d="M458.283 31.1188L454.838 38.2518H461.559L458.283 31.1188ZM446.596 46.1995V45.6906C447.297 45.5012 447.868 44.9256 448.308 43.9566C448.345 43.87 448.383 43.7888 448.421 43.7139L455.931 27.9917C456.019 27.8185 456.072 27.6931 456.092 27.6245C456.11 27.5569 456.119 27.4901 456.119 27.4288C456.119 27.2014 456.028 27.0083 455.845 26.8432C455.663 26.6808 455.398 26.5473 455.045 26.448V25.959H461.897V26.448C461.52 26.5725 461.266 26.6998 461.136 26.8243C461.004 26.9497 460.938 27.1085 460.938 27.2952C460.938 27.3818 460.954 27.4847 460.985 27.5966C461.016 27.7093 461.063 27.8429 461.126 27.9917L468.881 43.7328C469.221 44.4113 469.524 44.885 469.792 45.1529C470.064 45.4236 470.386 45.604 470.763 45.6906V46.1995H463.478V45.6906C463.829 45.5761 464.078 45.4552 464.223 45.3234C464.365 45.1926 464.438 45.0185 464.438 44.8074C464.438 44.7162 464.426 44.6233 464.401 44.5232C464.375 44.4239 464.325 44.2841 464.251 44.109L462.782 41.0018H453.503L452.109 44.109C452.034 44.2841 451.983 44.4239 451.959 44.5232C451.934 44.6233 451.922 44.7162 451.922 44.8074C451.922 45.0185 451.993 45.1926 452.137 45.3234C452.283 45.4552 452.531 45.5761 452.881 45.6906V46.1995H446.596" fill="#24606F"/>
<path d="M492.561 42.5644C492.961 42.5644 493.225 42.5094 493.351 42.3966C493.476 42.282 493.583 42.0384 493.671 41.6613L494.18 41.6433V47.1577H493.671C493.596 46.7814 493.482 46.5288 493.332 46.3944C493.182 46.2645 492.924 46.1995 492.561 46.1995H474.472V45.6906C474.873 45.5914 475.133 45.4669 475.253 45.3234C475.371 45.1809 475.431 44.931 475.431 44.58V27.5776C475.431 27.2014 475.368 26.9398 475.243 26.7963C475.117 26.6537 474.861 26.5356 474.472 26.448V25.959H480.833V26.448C480.458 26.5356 480.202 26.6537 480.072 26.7963C479.939 26.9398 479.874 27.2014 479.874 27.5776V42.5644H492.561" fill="#24606F"/>
<path d="M307.688 65.8743V65.5793C307.908 65.5044 308.055 65.4322 308.132 65.36C308.209 65.2851 308.248 65.1651 308.248 64.9982C308.248 64.9396 308.241 64.8755 308.23 64.8115C308.22 64.7447 308.211 64.6951 308.203 64.6563L304.671 55.4951C304.525 55.1081 304.379 54.841 304.232 54.6993C304.086 54.5568 303.874 54.4449 303.596 54.3646V54.0777H307.732V54.3646C307.513 54.4377 307.363 54.5099 307.282 54.5848C307.201 54.6569 307.162 54.749 307.162 54.8572C307.162 54.8933 307.171 54.9438 307.189 55.0043C307.207 55.0693 307.238 55.155 307.282 55.2641L309.772 62.3204L312.241 55.2641C312.254 55.228 312.265 55.1775 312.274 55.1162C312.281 55.0548 312.284 54.9944 312.284 54.9348C312.284 54.7742 312.25 54.6606 312.18 54.5902C312.111 54.5207 311.957 54.4449 311.724 54.3646V54.0777H316.113V54.3646C315.893 54.4377 315.745 54.5099 315.663 54.5848C315.582 54.6569 315.543 54.749 315.543 54.8572C315.543 54.8933 315.552 54.9438 315.57 55.0043C315.589 55.0693 315.618 55.155 315.663 55.2641L318.11 62.1454L320.533 55.2641C320.548 55.228 320.559 55.1775 320.567 55.1162C320.574 55.0548 320.577 54.9944 320.577 54.9348C320.577 54.7742 320.543 54.6606 320.474 54.5902C320.404 54.5207 320.253 54.4449 320.018 54.3646V54.0777H323.944V54.3646C323.659 54.4512 323.448 54.5676 323.308 54.7102C323.17 54.8527 323.031 55.1144 322.891 55.4951L319.436 64.6563C319.422 64.7005 319.41 64.7528 319.403 64.8115C319.396 64.8701 319.391 64.9305 319.391 64.9982C319.391 65.1651 319.429 65.2851 319.502 65.36C319.576 65.4322 319.725 65.5044 319.951 65.5793V65.8743H316.059V65.5793C316.292 65.5044 316.446 65.4295 316.525 65.3537C316.602 65.2761 316.643 65.1561 316.649 64.9982C316.649 64.954 316.645 64.9062 316.633 64.853C316.623 64.8033 316.607 64.7411 316.584 64.6662L313.865 56.8863L311.122 64.6563C311.107 64.7005 311.095 64.7528 311.088 64.8115C311.082 64.8701 311.078 64.9305 311.078 64.9982C311.078 65.1561 311.114 65.2761 311.187 65.3483C311.259 65.4205 311.419 65.499 311.659 65.5793V65.8743H307.688" fill="#3FA7BB"/>
<path d="M336.958 59.8952C336.958 61.0952 337.348 62.0588 338.13 62.7851C338.912 63.514 339.955 63.8785 341.263 63.8785C342.563 63.8785 343.605 63.5113 344.391 62.7796C345.175 62.0497 345.569 61.0871 345.569 59.8952C345.569 58.6962 345.174 57.7299 344.385 56.9982C343.596 56.2656 342.548 55.902 341.24 55.902C339.955 55.902 338.921 56.2692 338.135 57.0036C337.351 57.7389 336.958 58.7016 336.958 59.8952V59.8952ZM341.24 53.8693C343.236 53.8693 344.872 54.4449 346.152 55.598C347.431 56.7501 348.069 58.2027 348.069 59.9602C348.069 61.7159 347.426 63.1748 346.142 64.3324C344.854 65.4926 343.222 66.0728 341.24 66.0728C339.29 66.0728 337.672 65.4881 336.384 64.3215C335.099 63.1559 334.457 61.7015 334.457 59.9602C334.457 58.2117 335.094 56.7591 336.37 55.6043C337.644 54.4485 339.268 53.8693 341.24 53.8693Z" fill="#3FA7BB"/>
<path d="M366.907 56.0987H363.354V59.3359H366.995C368.07 59.3359 368.836 59.206 369.294 58.947C369.75 58.6854 369.979 58.2595 369.979 57.6668C369.979 57.0956 369.755 56.6924 369.31 56.4551C368.864 56.216 368.063 56.0987 366.907 56.0987ZM360.205 65.8743V65.5793C360.431 65.535 360.582 65.4683 360.654 65.3817C360.728 65.2932 360.765 65.1426 360.765 64.9305V55.0214C360.765 54.8184 360.73 54.6705 360.66 54.5848C360.59 54.4954 360.439 54.4233 360.205 54.3646V54.0777H367.621C369.155 54.0777 370.348 54.3791 371.197 54.9799C372.044 55.5781 372.468 56.4163 372.468 57.4908C372.468 58.3759 372.206 59.1049 371.685 59.6814C371.162 60.2552 370.355 60.6892 369.265 60.9806L371.756 64.4578C371.902 64.6725 372.069 64.8557 372.256 65.0145C372.442 65.1705 372.74 65.36 373.149 65.5793V65.8743H368.816V65.5793C368.977 65.5576 369.1 65.5134 369.184 65.4466C369.267 65.3817 369.31 65.3023 369.31 65.2066C369.31 65.185 369.281 65.1092 369.223 64.9865C369.164 64.8611 369.102 64.7528 369.035 64.6563L366.567 61.0456H363.354V64.9305C363.354 65.1516 363.389 65.3023 363.458 65.3817C363.526 65.4629 363.678 65.5269 363.913 65.5793V65.8743H360.205" fill="#3FA7BB"/>
<path d="M395.508 63.7568C395.742 63.7568 395.896 63.7234 395.969 63.6593C396.041 63.5926 396.103 63.4509 396.155 63.2308L396.451 63.219V66.4337H396.155C396.11 66.2144 396.045 66.0664 395.957 65.9889C395.869 65.9131 395.719 65.8743 395.508 65.8743H384.966V65.5793C385.199 65.5215 385.351 65.4493 385.421 65.3654C385.491 65.2815 385.526 65.1372 385.526 64.9305V55.0214C385.526 54.8022 385.49 54.6515 385.416 54.5676C385.344 54.4846 385.193 54.4152 384.966 54.3646V54.0777H388.674V54.3646C388.454 54.4152 388.306 54.4846 388.229 54.5676C388.152 54.6515 388.114 54.8022 388.114 55.0214V63.7568H395.508" fill="#3FA7BB"/>
<path d="M411.701 56.0103V63.8984H414.848C416.194 63.8984 417.215 63.5646 417.909 62.8969C418.603 62.2257 418.951 61.2405 418.951 59.9377C418.951 58.643 418.606 57.6668 417.914 57.0036C417.223 56.3414 416.201 56.0103 414.848 56.0103H411.701ZM414.377 54.0777C415.788 54.0777 416.883 54.1806 417.664 54.3872C418.441 54.5902 419.119 54.9294 419.697 55.4058C420.304 55.9047 420.77 56.5471 421.095 57.3374C421.421 58.1278 421.583 59.002 421.583 59.9602C421.583 60.9346 421.421 61.8134 421.095 62.6037C420.77 63.3941 420.304 64.0437 419.697 64.5471C419.119 65.0235 418.441 65.3627 417.664 65.5684C416.883 65.7714 415.788 65.8743 414.377 65.8743H408.552V65.5793C408.786 65.5215 408.938 65.4493 409.007 65.3654C409.077 65.2815 409.111 65.1372 409.111 64.9305V55.0214C409.111 54.8022 409.075 54.6515 409.002 54.5676C408.929 54.4846 408.779 54.4151 408.552 54.3646V54.0777H414.377" fill="#3FA7BB"/>
<path d="M298.43 61.2134H233.231V59.3016H298.43V61.2134Z" fill="#3FA7BB"/>
<path d="M491.95 61.2134H426.75V59.3016H491.95V61.2134Z" fill="#3FA7BB"/>
</g>
<defs>
<clipPath id="clip0_1_2">
<rect width="495" height="93" fill="white"/>
</clipPath>
</defs>
</svg>
