<svg width="208" height="94" viewBox="0 0 208 94" fill="none" xmlns="http://www.w3.org/2000/svg">
<g clip-path="url(#clip0_2_57)">
<path d="M207.736 26.4442C202.859 45.2726 193.384 59.3464 179.376 69.4775C167.821 66.6851 157.19 63.641 146.369 61.611C129.314 58.4117 112.051 58.6697 94.8276 60.2441C72.9343 62.2444 51.5461 66.8926 30.442 72.9402C29.4805 73.2154 28.4704 73.3137 27.3907 73.0683C84.6499 47.761 143.601 29.1183 207.736 26.4442" fill="white"/>
<path d="M0.331915 85.2059C19.7259 89.0629 38.3496 84.4769 57.049 80.4602C73.0489 77.0236 88.9956 73.1459 105.151 70.6774C121.629 68.1593 138.271 68.2026 154.335 73.9804C160.314 76.1304 166.074 78.7595 171.912 83.6486C165.385 81.7594 160.036 79.834 154.526 78.6873C140.352 75.738 126.092 76.6997 112.027 79.2846C93.2104 82.7419 74.5398 86.9914 55.7556 90.6336C41.676 93.3638 27.4566 94.4464 13.3066 91.2273C8.7445 90.1888 4.42863 88.0749 0 86.4518C0.110941 86.0368 0.220974 85.6209 0.331915 85.2059" fill="white"/>
<path d="M67.454 50.1455C90.4134 33.8036 115.303 21.5767 142.915 13.0308C146.65 17.3985 150.448 21.8392 155.096 27.2751C124.223 31.0798 95.7151 40.0262 67.454 50.1455" fill="white"/>
<path d="M127.537 11.0964L117.991 1.91952e-05C117.991 1.91952e-05 77.2692 23.7961 67.4161 44.789C67.4161 44.789 103.495 17.7323 127.537 11.0964" fill="white"/>
</g>
<defs>
<clipPath id="clip0_2_57">
<rect width="207.74" height="93.2" fill="white"/>
</clipPath>
</defs>
</svg>
